<svg width="38" height="38" viewBox="0 0 38 38" fill="none" xmlns="http://www.w3.org/2000/svg">
<g clip-path="url(#clip0_4_582)">
<path d="M28.5 9.49996H25.3333C25.3333 6.00079 22.4991 3.16663 19 3.16663C15.5008 3.16663 12.6666 6.00079 12.6666 9.49996H9.49998C7.75831 9.49996 6.33331 10.925 6.33331 12.6666V31.6666C6.33331 33.4083 7.75831 34.8333 9.49998 34.8333H28.5C30.2416 34.8333 31.6666 33.4083 31.6666 31.6666V12.6666C31.6666 10.925 30.2416 9.49996 28.5 9.49996ZM19 6.33329C20.7416 6.33329 22.1666 7.75829 22.1666 9.49996H15.8333C15.8333 7.75829 17.2583 6.33329 19 6.33329ZM28.5 31.6666H9.49998V12.6666H12.6666V15.8333C12.6666 16.7041 13.3791 17.4166 14.25 17.4166C15.1208 17.4166 15.8333 16.7041 15.8333 15.8333V12.6666H22.1666V15.8333C22.1666 16.7041 22.8791 17.4166 23.75 17.4166C24.6208 17.4166 25.3333 16.7041 25.3333 15.8333V12.6666H28.5V31.6666Z" fill="#002F52"/>
</g>
<defs>
<clipPath id="clip0_4_582">
<rect width="38" height="38" fill="white"/>
</clipPath>
</defs>
</svg>
